<?xml version="1.0" encoding="UTF-8"?>
<svg xmlns="http://www.w3.org/2000/svg" xmlns:xlink="http://www.w3.org/1999/xlink" width="261.2pt" height="261.2pt" viewBox="0 0 261.2 261.2" version="1.1">
<g id="surface1">
<path style=" stroke:none;fill-rule:nonzero;fill:rgb(86.984253%,11.561584%,14.526367%);fill-opacity:1;" d="M 201.144531 200.945313 L 197.519531 200.945313 C 196.828125 200.945313 196.515625 200.007813 197.058594 199.539063 L 198.101563 198.636719 C 198.984375 197.871094 200.09375 197.453125 201.230469 197.453125 L 204.851563 197.453125 C 205.550781 197.453125 205.859375 198.386719 205.316406 198.863281 L 204.277344 199.757813 C 203.390625 200.527344 202.285156 200.945313 201.144531 200.945313 "/>
<path style=" stroke:none;fill-rule:nonzero;fill:rgb(86.984253%,11.561584%,14.526367%);fill-opacity:1;" d="M 205.882813 195.855469 L 202.265625 196.109375 C 201.578125 196.152344 201.199219 195.238281 201.707031 194.738281 L 202.6875 193.765625 C 203.515625 192.9375 204.589844 192.445313 205.726563 192.367188 L 209.339844 192.113281 C 210.03125 192.0625 210.40625 192.984375 209.898438 193.484375 L 208.921875 194.453125 C 208.09375 195.28125 207.023438 195.773438 205.882813 195.855469 "/>
<path style=" stroke:none;fill-rule:nonzero;fill:rgb(86.984253%,11.561584%,14.526367%);fill-opacity:1;" d="M 210.257813 190.445313 L 206.664063 190.953125 C 205.980469 191.046875 205.542969 190.160156 206.015625 189.621094 L 206.914063 188.589844 C 207.6875 187.703125 208.726563 187.136719 209.851563 186.984375 L 213.445313 186.472656 C 214.132813 186.375 214.5625 187.261719 214.097656 187.800781 L 213.195313 188.839844 C 212.414063 189.722656 211.386719 190.285156 210.257813 190.445313 "/>
<path style=" stroke:none;fill-rule:nonzero;fill:rgb(86.984253%,11.561584%,14.526367%);fill-opacity:1;" d="M 214.238281 184.753906 L 210.691406 185.496094 C 210.011719 185.648438 209.515625 184.789063 209.949219 184.222656 L 210.777344 183.125 C 211.484375 182.191406 212.480469 181.550781 213.59375 181.3125 L 217.140625 180.5625 C 217.816406 180.417969 218.3125 181.269531 217.882813 181.84375 L 217.046875 182.9375 C 216.34375 183.867188 215.347656 184.507813 214.238281 184.753906 "/>
<path style=" stroke:none;fill-rule:nonzero;fill:rgb(86.984253%,11.561584%,14.526367%);fill-opacity:1;" d="M 217.808594 178.785156 L 214.328125 179.785156 C 213.660156 179.972656 213.105469 179.15625 213.492188 178.554688 L 214.246094 177.40625 C 214.886719 176.425781 215.839844 175.722656 216.925781 175.402344 L 220.410156 174.40625 C 221.082031 174.210938 221.640625 175.027344 221.25 175.628906 L 220.496094 176.785156 C 219.855469 177.765625 218.902344 178.472656 217.808594 178.785156 "/>
<path style=" stroke:none;fill-rule:nonzero;fill:rgb(86.984253%,11.561584%,14.526367%);fill-opacity:1;" d="M 220.960938 172.582031 L 217.558594 173.820313 C 216.90625 174.0625 216.296875 173.285156 216.644531 172.660156 L 217.308594 171.460938 C 217.882813 170.4375 218.777344 169.664063 219.851563 169.277344 L 223.25 168.039063 C 223.90625 167.800781 224.519531 168.578125 224.175781 169.203125 L 223.5 170.40625 C 222.933594 171.425781 222.035156 172.195313 220.960938 172.582031 "/>
<path style=" stroke:none;fill-rule:nonzero;fill:rgb(86.984253%,11.561584%,14.526367%);fill-opacity:1;" d="M 223.671875 166.175781 L 220.359375 167.65625 C 219.726563 167.9375 219.066406 167.207031 219.363281 166.554688 L 219.949219 165.316406 C 220.449219 164.25 221.289063 163.421875 222.328125 162.957031 L 225.640625 161.484375 C 226.273438 161.203125 226.941406 161.9375 226.636719 162.582031 L 226.046875 163.828125 C 225.546875 164.886719 224.707031 165.714844 223.671875 166.175781 "/>
<path style=" stroke:none;fill-rule:nonzero;fill:rgb(86.984253%,11.561584%,14.526367%);fill-opacity:1;" d="M 225.929688 159.605469 L 222.726563 161.304688 C 222.113281 161.632813 221.398438 160.945313 221.660156 160.285156 L 222.15625 159 C 222.585938 157.90625 223.355469 157.019531 224.363281 156.484375 L 227.5625 154.78125 C 228.171875 154.453125 228.890625 155.140625 228.628906 155.804688 L 228.136719 157.085938 C 227.710938 158.183594 226.9375 159.074219 225.929688 159.605469 "/>
<path style=" stroke:none;fill-rule:nonzero;fill:rgb(86.984253%,11.561584%,14.526367%);fill-opacity:1;" d="M 227.722656 152.890625 L 224.644531 154.8125 C 224.058594 155.179688 223.304688 154.542969 223.507813 153.859375 L 223.914063 152.546875 C 224.265625 151.429688 224.976563 150.484375 225.945313 149.882813 L 229.015625 147.964844 C 229.605469 147.59375 230.363281 148.226563 230.148438 148.910156 L 229.746094 150.21875 C 229.402344 151.347656 228.6875 152.285156 227.722656 152.890625 "/>
<path style=" stroke:none;fill-rule:nonzero;fill:rgb(86.984253%,11.561584%,14.526367%);fill-opacity:1;" d="M 229.039063 146.058594 L 226.105469 148.1875 C 225.546875 148.597656 224.746094 148.023438 224.90625 147.328125 L 225.21875 145.988281 C 225.484375 144.84375 226.136719 143.859375 227.058594 143.1875 L 229.988281 141.058594 C 230.550781 140.648438 231.347656 141.230469 231.1875 141.925781 L 230.871094 143.265625 C 230.609375 144.40625 229.957031 145.390625 229.039063 146.058594 "/>
<path style=" stroke:none;fill-rule:nonzero;fill:rgb(86.984253%,11.561584%,14.526367%);fill-opacity:1;" d="M 229.882813 139.164063 L 227.109375 141.492188 C 226.570313 141.9375 225.730469 141.414063 225.847656 140.707031 L 226.0625 139.355469 C 226.253906 138.195313 226.824219 137.164063 227.699219 136.433594 L 230.476563 134.105469 C 231.015625 133.65625 231.851563 134.179688 231.730469 134.882813 L 231.519531 136.238281 C 231.332031 137.398438 230.753906 138.425781 229.882813 139.164063 "/>
<path style=" stroke:none;fill-rule:nonzero;fill:rgb(86.984253%,11.561584%,14.526367%);fill-opacity:1;" d="M 230.238281 132.214844 L 227.628906 134.734375 C 227.128906 135.21875 226.257813 134.757813 226.320313 134.042969 L 226.441406 132.675781 C 226.546875 131.503906 227.046875 130.433594 227.871094 129.644531 L 230.476563 127.128906 C 230.941406 126.675781 231.742188 127.050781 231.785156 127.6875 L 231.785156 127.796875 L 231.78125 127.820313 L 231.660156 129.191406 C 231.5625 130.355469 231.058594 131.425781 230.238281 132.214844 "/>
<path style=" stroke:none;fill-rule:nonzero;fill:rgb(86.984253%,11.561584%,14.526367%);fill-opacity:1;" d="M 230.105469 125.261719 L 227.683594 127.953125 C 227.214844 128.472656 226.3125 128.074219 226.328125 127.359375 L 226.351563 125.984375 C 226.378906 124.8125 226.804688 123.710938 227.5625 122.859375 L 229.988281 120.167969 C 230.453125 119.65625 231.359375 120.054688 231.34375 120.773438 L 231.316406 122.144531 C 231.292969 123.316406 230.863281 124.417969 230.105469 125.261719 "/>
<path style=" stroke:none;fill-rule:nonzero;fill:rgb(86.984253%,11.561584%,14.526367%);fill-opacity:1;" d="M 229.488281 118.339844 L 227.261719 121.191406 C 226.835938 121.746094 225.902344 121.410156 225.867188 120.695313 L 225.796875 119.316406 C 225.738281 118.152344 226.089844 117.019531 226.792969 116.121094 L 229.023438 113.269531 C 229.453125 112.71875 230.378906 113.054688 230.417969 113.765625 L 230.484375 115.144531 C 230.546875 116.316406 230.191406 117.441406 229.488281 118.339844 "/>
<path style=" stroke:none;fill-rule:nonzero;fill:rgb(86.984253%,11.561584%,14.526367%);fill-opacity:1;" d="M 228.398438 111.472656 L 226.371094 114.476563 C 225.980469 115.054688 225.027344 114.78125 224.941406 114.074219 L 224.777344 112.710938 C 224.640625 111.542969 224.90625 110.390625 225.542969 109.449219 L 227.574219 106.449219 C 227.964844 105.871094 228.910156 106.140625 228.996094 106.851563 L 229.164063 108.21875 C 229.304688 109.382813 229.03125 110.527344 228.398438 111.472656 "/>
<path style=" stroke:none;fill-rule:nonzero;fill:rgb(86.984253%,11.561584%,14.526367%);fill-opacity:1;" d="M 226.820313 104.703125 L 225.011719 107.835938 C 224.664063 108.441406 223.695313 108.234375 223.5625 107.535156 L 223.300781 106.183594 C 223.078125 105.035156 223.273438 103.867188 223.84375 102.878906 L 225.652344 99.746094 C 225.996094 99.140625 226.96875 99.347656 227.101563 100.050781 L 227.363281 101.398438 C 227.578125 102.546875 227.386719 103.714844 226.820313 104.703125 "/>
<path style=" stroke:none;fill-rule:nonzero;fill:rgb(86.984253%,11.561584%,14.526367%);fill-opacity:1;" d="M 224.78125 98.054688 L 223.191406 101.316406 C 222.890625 101.929688 221.90625 101.800781 221.730469 101.109375 L 221.375 99.78125 C 221.070313 98.648438 221.179688 97.472656 221.679688 96.445313 L 223.269531 93.191406 C 223.566406 92.570313 224.554688 92.703125 224.734375 93.390625 L 225.089844 94.722656 C 225.386719 95.855469 225.273438 97.03125 224.78125 98.054688 "/>
<path style=" stroke:none;fill-rule:nonzero;fill:rgb(86.984253%,11.561584%,14.526367%);fill-opacity:1;" d="M 222.28125 91.566406 L 220.925781 94.929688 C 220.660156 95.570313 219.679688 95.507813 219.449219 94.824219 L 219.003906 93.523438 C 218.617188 92.417969 218.644531 91.238281 219.070313 90.179688 L 220.429688 86.820313 C 220.691406 86.175781 221.679688 86.238281 221.902344 86.921875 L 222.351563 88.222656 C 222.730469 89.332031 222.707031 90.511719 222.28125 91.566406 "/>
<path style=" stroke:none;fill-rule:nonzero;fill:rgb(86.984253%,11.561584%,14.526367%);fill-opacity:1;" d="M 219.335938 85.265625 L 218.207031 88.714844 C 218 89.371094 217.011719 89.378906 216.730469 88.71875 L 216.199219 87.449219 C 215.742188 86.371094 215.6875 85.191406 216.039063 84.109375 L 217.15625 80.660156 C 217.371094 80 218.359375 79.996094 218.636719 80.660156 L 219.175781 81.921875 C 219.632813 83.007813 219.683594 84.183594 219.335938 85.265625 "/>
<path style=" stroke:none;fill-rule:nonzero;fill:rgb(86.984253%,11.561584%,14.526367%);fill-opacity:1;" d="M 215.953125 79.195313 L 215.074219 82.707031 C 214.910156 83.386719 213.921875 83.457031 213.601563 82.820313 L 212.976563 81.589844 C 212.445313 80.542969 212.3125 79.375 212.582031 78.265625 L 213.460938 74.75 C 213.628906 74.078125 214.613281 74.007813 214.941406 74.644531 L 215.5625 75.871094 C 216.089844 76.914063 216.226563 78.09375 215.953125 79.195313 "/>
<path style=" stroke:none;fill-rule:nonzero;fill:rgb(86.984253%,11.561584%,14.526367%);fill-opacity:1;" d="M 212.160156 73.367188 L 211.53125 76.933594 C 211.410156 77.617188 210.433594 77.761719 210.0625 77.148438 L 209.355469 75.964844 C 208.757813 74.957031 208.535156 73.796875 208.734375 72.679688 L 209.363281 69.109375 C 209.484375 68.425781 210.460938 68.285156 210.828125 68.894531 L 211.535156 70.078125 C 212.128906 71.089844 212.355469 72.246094 212.160156 73.367188 "/>
<path style=" stroke:none;fill-rule:nonzero;fill:rgb(86.984253%,11.561584%,14.526367%);fill-opacity:1;" d="M 207.964844 67.820313 L 207.585938 71.425781 C 207.519531 72.113281 206.550781 72.320313 206.140625 71.734375 L 205.355469 70.609375 C 204.6875 69.644531 204.382813 68.503906 204.503906 67.375 L 204.878906 63.773438 C 204.953125 63.078125 205.921875 62.871094 206.324219 63.457031 L 207.113281 64.589844 C 207.785156 65.546875 208.085938 66.683594 207.964844 67.820313 "/>
<path style=" stroke:none;fill-rule:nonzero;fill:rgb(86.984253%,11.561584%,14.526367%);fill-opacity:1;" d="M 203.394531 62.578125 L 203.273438 66.195313 C 203.246094 66.890625 202.300781 67.164063 201.851563 66.609375 L 200.992188 65.539063 C 200.25 64.625 199.871094 63.511719 199.910156 62.371094 L 200.035156 58.75 C 200.0625 58.054688 201.007813 57.78125 201.460938 58.339844 L 202.320313 59.40625 C 203.058594 60.320313 203.4375 61.441406 203.394531 62.578125 "/>
<path style=" stroke:none;fill-rule:nonzero;fill:rgb(86.984253%,11.561584%,14.526367%);fill-opacity:1;" d="M 198.472656 57.664063 L 198.597656 61.289063 C 198.625 61.984375 197.695313 62.320313 197.210938 61.800781 L 196.273438 60.792969 C 195.472656 59.933594 195.019531 58.84375 194.972656 57.707031 L 194.847656 54.082031 C 194.828125 53.390625 195.753906 53.050781 196.246094 53.570313 L 197.175781 54.578125 C 197.972656 55.4375 198.433594 56.53125 198.472656 57.664063 "/>
<path style=" stroke:none;fill-rule:nonzero;fill:rgb(86.984253%,11.561584%,14.526367%);fill-opacity:1;" d="M 193.21875 53.113281 L 193.597656 56.714844 C 193.667969 57.402344 192.773438 57.816406 192.25 57.324219 L 191.242188 56.382813 C 190.386719 55.582031 189.855469 54.523438 189.734375 53.390625 L 189.355469 49.792969 C 189.285156 49.101563 190.1875 48.699219 190.707031 49.183594 L 191.714844 50.128906 C 192.570313 50.925781 193.101563 51.980469 193.21875 53.113281 "/>
<path style=" stroke:none;fill-rule:nonzero;fill:rgb(86.984253%,11.561584%,14.526367%);fill-opacity:1;" d="M 187.664063 48.933594 L 188.289063 52.503906 C 188.410156 53.191406 187.539063 53.652344 186.976563 53.203125 L 185.914063 52.335938 C 185.007813 51.59375 184.402344 50.582031 184.207031 49.457031 L 183.578125 45.890625 C 183.453125 45.207031 184.324219 44.738281 184.878906 45.191406 L 185.949219 46.058594 C 186.855469 46.800781 187.460938 47.8125 187.664063 48.933594 "/>
<path style=" stroke:none;fill-rule:nonzero;fill:rgb(86.984253%,11.561584%,14.526367%);fill-opacity:1;" d="M 181.820313 45.15625 L 182.699219 48.671875 C 182.867188 49.34375 182.035156 49.875 181.441406 49.460938 L 180.320313 48.667969 C 179.363281 47.996094 178.6875 47.019531 178.414063 45.921875 L 177.535156 42.402344 C 177.367188 41.726563 178.203125 41.207031 178.792969 41.613281 L 179.914063 42.402344 C 180.871094 43.082031 181.550781 44.054688 181.820313 45.15625 "/>
<path style=" stroke:none;fill-rule:nonzero;fill:rgb(86.984253%,11.561584%,14.526367%);fill-opacity:1;" d="M 175.734375 41.789063 L 176.855469 45.234375 C 177.066406 45.894531 176.269531 46.480469 175.65625 46.109375 L 174.480469 45.398438 C 173.476563 44.789063 172.738281 43.871094 172.390625 42.789063 L 171.265625 39.339844 C 171.050781 38.679688 171.851563 38.097656 172.464844 38.46875 L 173.640625 39.183594 C 174.640625 39.785156 175.382813 40.707031 175.734375 41.789063 "/>
<path style=" stroke:none;fill-rule:nonzero;fill:rgb(86.984253%,11.561584%,14.526367%);fill-opacity:1;" d="M 169.429688 38.863281 L 170.789063 42.222656 C 171.050781 42.863281 170.289063 43.503906 169.652344 43.179688 L 168.433594 42.550781 C 167.386719 42.015625 166.589844 41.148438 166.160156 40.09375 L 164.804688 36.734375 C 164.542969 36.089844 165.296875 35.449219 165.929688 35.777344 L 167.160156 36.40625 C 168.203125 36.9375 169 37.808594 169.429688 38.863281 "/>
<path style=" stroke:none;fill-rule:nonzero;fill:rgb(86.984253%,11.561584%,14.526367%);fill-opacity:1;" d="M 162.929688 36.378906 L 164.519531 39.636719 C 164.824219 40.257813 164.117188 40.945313 163.460938 40.667969 L 162.191406 40.121094 C 161.113281 39.660156 160.253906 38.855469 159.753906 37.828125 L 158.164063 34.570313 C 157.863281 33.953125 158.570313 33.261719 159.226563 33.542969 L 160.492188 34.085938 C 161.574219 34.550781 162.4375 35.355469 162.929688 36.378906 "/>
<path style=" stroke:none;fill-rule:nonzero;fill:rgb(86.984253%,11.561584%,14.526367%);fill-opacity:1;" d="M 156.277344 34.355469 L 158.09375 37.488281 C 158.4375 38.09375 157.78125 38.828125 157.101563 38.59375 L 155.804688 38.144531 C 154.695313 37.761719 153.777344 37.011719 153.210938 36.027344 L 151.398438 32.894531 C 151.050781 32.285156 151.710938 31.550781 152.386719 31.785156 L 153.683594 32.238281 C 154.792969 32.621094 155.710938 33.367188 156.277344 34.355469 "/>
<path style=" stroke:none;fill-rule:nonzero;fill:rgb(86.984253%,11.561584%,14.526367%);fill-opacity:1;" d="M 149.496094 32.796875 L 151.527344 35.796875 C 151.917969 36.382813 151.304688 37.160156 150.617188 36.972656 L 149.292969 36.613281 C 148.15625 36.304688 147.191406 35.621094 146.558594 34.683594 L 144.53125 31.675781 C 144.144531 31.101563 144.742188 30.320313 145.441406 30.503906 L 146.765625 30.867188 C 147.898438 31.175781 148.863281 31.855469 149.496094 32.796875 "/>
<path style=" stroke:none;fill-rule:nonzero;fill:rgb(86.984253%,11.561584%,14.526367%);fill-opacity:1;" d="M 142.625 31.71875 L 144.859375 34.570313 C 145.285156 35.121094 144.734375 35.941406 144.03125 35.800781 L 142.6875 35.535156 C 141.53125 35.308594 140.523438 34.695313 139.824219 33.800781 L 137.597656 30.941406 C 137.164063 30.398438 137.714844 29.578125 138.417969 29.714844 L 139.761719 29.984375 C 140.914063 30.207031 141.925781 30.816406 142.625 31.71875 "/>
<path style=" stroke:none;fill-rule:nonzero;fill:rgb(86.984253%,11.561584%,14.526367%);fill-opacity:1;" d="M 135.699219 31.117188 L 138.125 33.808594 C 138.589844 34.328125 138.097656 35.183594 137.386719 35.089844 L 136.027344 34.929688 C 134.855469 34.777344 133.808594 34.238281 133.046875 33.390625 L 130.617188 30.699219 C 130.203125 30.230469 130.5625 29.484375 131.167969 29.414063 L 131.347656 29.414063 L 131.359375 29.417969 L 132.722656 29.585938 C 133.886719 29.726563 134.933594 30.273438 135.699219 31.117188 "/>
<path style=" stroke:none;fill-rule:nonzero;fill:rgb(86.984253%,11.561584%,14.526367%);fill-opacity:1;" d="M 128.746094 31.003906 L 131.355469 33.527344 C 131.851563 34.007813 131.425781 34.890625 130.707031 34.855469 L 129.339844 34.777344 C 128.164063 34.714844 127.082031 34.25 126.261719 33.460938 L 123.652344 30.941406 C 123.148438 30.460938 123.578125 29.570313 124.296875 29.609375 L 125.667969 29.6875 C 126.84375 29.75 127.925781 30.21875 128.746094 31.003906 "/>
<path style=" stroke:none;fill-rule:nonzero;fill:rgb(86.984253%,11.561584%,14.526367%);fill-opacity:1;" d="M 121.800781 31.378906 L 124.578125 33.710938 C 125.109375 34.152344 124.738281 35.066406 124.027344 35.082031 L 122.652344 35.097656 C 121.476563 35.121094 120.363281 34.734375 119.496094 34 L 116.714844 31.671875 C 116.179688 31.226563 116.550781 30.308594 117.261719 30.300781 L 118.640625 30.277344 C 119.816406 30.261719 120.925781 30.648438 121.800781 31.378906 "/>
<path style=" stroke:none;fill-rule:nonzero;fill:rgb(86.984253%,11.561584%,14.526367%);fill-opacity:1;" d="M 114.902344 32.238281 L 117.835938 34.363281 C 118.390625 34.769531 118.089844 35.710938 117.378906 35.773438 L 116.007813 35.886719 C 114.839844 35.988281 113.695313 35.675781 112.777344 35.007813 L 109.847656 32.878906 C 109.285156 32.46875 109.582031 31.527344 110.300781 31.46875 L 111.671875 31.351563 C 112.839844 31.253906 113.976563 31.5625 114.902344 32.238281 "/>
<path style=" stroke:none;fill-rule:nonzero;fill:rgb(86.984253%,11.561584%,14.526367%);fill-opacity:1;" d="M 108.070313 33.566406 L 111.148438 35.484375 C 111.734375 35.855469 111.5 36.8125 110.792969 36.925781 L 109.433594 37.136719 C 108.277344 37.316406 107.117188 37.089844 106.152344 36.480469 L 103.078125 34.566406 C 102.484375 34.195313 102.726563 33.238281 103.425781 33.125 L 104.789063 32.917969 C 105.949219 32.730469 107.105469 32.96875 108.070313 33.566406 "/>
<path style=" stroke:none;fill-rule:nonzero;fill:rgb(86.984253%,11.561584%,14.526367%);fill-opacity:1;" d="M 101.359375 35.378906 L 104.558594 37.074219 C 105.167969 37.40625 105.003906 38.378906 104.304688 38.535156 L 102.964844 38.84375 C 101.820313 39.101563 100.648438 38.953125 99.648438 38.417969 L 96.4375 36.71875 C 95.828125 36.394531 95.996094 35.417969 96.695313 35.265625 L 98.035156 34.949219 C 99.175781 34.691406 100.351563 34.839844 101.359375 35.378906 "/>
<path style=" stroke:none;fill-rule:nonzero;fill:rgb(86.984253%,11.561584%,14.526367%);fill-opacity:1;" d="M 94.78125 37.652344 L 98.09375 39.117188 C 98.726563 39.40625 98.632813 40.386719 97.945313 40.597656 L 96.625 40.992188 C 95.503906 41.332031 94.320313 41.269531 93.28125 40.804688 L 89.972656 39.332031 C 89.335938 39.046875 89.4375 38.066406 90.121094 37.855469 L 91.4375 37.460938 C 92.5625 37.121094 93.742188 37.1875 94.78125 37.652344 "/>
<path style=" stroke:none;fill-rule:nonzero;fill:rgb(86.984253%,11.561584%,14.526367%);fill-opacity:1;" d="M 88.382813 40.367188 L 91.789063 41.609375 C 92.441406 41.847656 92.414063 42.835938 91.742188 43.089844 L 90.453125 43.578125 C 89.367188 44 88.175781 44.015625 87.109375 43.625 L 83.703125 42.390625 C 83.054688 42.148438 83.082031 41.160156 83.75 40.90625 L 85.039063 40.414063 C 86.128906 40 87.316406 39.984375 88.382813 40.367188 "/>
<path style=" stroke:none;fill-rule:nonzero;fill:rgb(86.984253%,11.561584%,14.526367%);fill-opacity:1;" d="M 82.191406 43.535156 L 85.675781 44.535156 C 86.34375 44.726563 86.382813 45.714844 85.734375 46.015625 L 84.484375 46.589844 C 83.417969 47.078125 82.238281 47.179688 81.152344 46.867188 L 77.660156 45.871094 C 76.996094 45.679688 76.953125 44.691406 77.605469 44.390625 L 78.855469 43.8125 C 79.921875 43.316406 81.097656 43.222656 82.191406 43.535156 "/>
<path style=" stroke:none;fill-rule:nonzero;fill:rgb(86.984253%,11.561584%,14.526367%);fill-opacity:1;" d="M 76.230469 47.125 L 79.777344 47.878906 C 80.457031 48.023438 80.566406 49 79.9375 49.347656 L 78.734375 50.011719 C 77.707031 50.578125 76.539063 50.757813 75.425781 50.519531 L 71.878906 49.765625 C 71.203125 49.625 71.089844 48.640625 71.714844 48.296875 L 72.929688 47.632813 C 73.957031 47.066406 75.121094 46.890625 76.230469 47.125 "/>
<path style=" stroke:none;fill-rule:nonzero;fill:rgb(86.984253%,11.561584%,14.526367%);fill-opacity:1;" d="M 70.539063 51.117188 L 74.128906 51.621094 C 74.816406 51.71875 74.996094 52.6875 74.390625 53.078125 L 73.234375 53.824219 C 72.25 54.460938 71.097656 54.722656 69.972656 54.5625 L 66.378906 54.0625 C 65.691406 53.964844 65.519531 52.992188 66.117188 52.605469 L 67.273438 51.851563 C 68.261719 51.21875 69.414063 50.960938 70.539063 51.117188 "/>
<path style=" stroke:none;fill-rule:nonzero;fill:rgb(86.984253%,11.561584%,14.526367%);fill-opacity:1;" d="M 65.140625 55.503906 L 68.753906 55.753906 C 69.449219 55.796875 69.695313 56.761719 69.117188 57.191406 L 68.011719 58.007813 C 67.078125 58.714844 65.945313 59.054688 64.808594 58.976563 L 61.199219 58.726563 C 60.5 58.675781 60.257813 57.71875 60.832031 57.289063 L 61.933594 56.460938 C 62.867188 55.761719 64.003906 55.421875 65.140625 55.503906 "/>
<path style=" stroke:none;fill-rule:nonzero;fill:rgb(86.984253%,11.561584%,14.526367%);fill-opacity:1;" d="M 60.058594 60.242188 L 63.683594 60.242188 C 64.375 60.242188 64.691406 61.183594 64.144531 61.65625 L 63.105469 62.550781 C 62.21875 63.320313 61.117188 63.734375 59.976563 63.738281 L 56.355469 63.738281 C 55.65625 63.738281 55.34375 62.796875 55.890625 62.332031 L 56.929688 61.433594 C 57.816406 60.664063 58.917969 60.242188 60.058594 60.242188 "/>
<path style=" stroke:none;fill-rule:nonzero;fill:rgb(86.984253%,11.561584%,14.526367%);fill-opacity:1;" d="M 55.320313 65.339844 L 58.9375 65.085938 C 59.628906 65.035156 60.003906 65.949219 59.503906 66.457031 L 58.519531 67.425781 C 57.6875 68.25 56.617188 68.746094 55.484375 68.824219 L 51.863281 69.078125 C 51.171875 69.128906 50.800781 68.210938 51.308594 67.710938 L 52.28125 66.738281 C 53.113281 65.90625 54.183594 65.421875 55.320313 65.339844 "/>
<path style=" stroke:none;fill-rule:nonzero;fill:rgb(86.984253%,11.561584%,14.526367%);fill-opacity:1;" d="M 50.953125 70.742188 L 54.546875 70.242188 C 55.230469 70.144531 55.667969 71.035156 55.191406 71.570313 L 54.289063 72.605469 C 53.519531 73.488281 52.480469 74.054688 51.355469 74.210938 L 47.765625 74.722656 C 47.078125 74.816406 46.644531 73.929688 47.109375 73.386719 L 48.015625 72.355469 C 48.789063 71.472656 49.824219 70.898438 50.953125 70.742188 "/>
<path style=" stroke:none;fill-rule:nonzero;fill:rgb(86.984253%,11.561584%,14.526367%);fill-opacity:1;" d="M 46.96875 76.445313 L 50.511719 75.691406 C 51.195313 75.550781 51.691406 76.398438 51.257813 76.96875 L 50.425781 78.066406 C 49.71875 79 48.722656 79.640625 47.609375 79.875 L 44.066406 80.628906 C 43.386719 80.773438 42.894531 79.921875 43.324219 79.351563 L 44.15625 78.257813 C 44.867188 77.320313 45.859375 76.679688 46.96875 76.445313 "/>
<path style=" stroke:none;fill-rule:nonzero;fill:rgb(86.984253%,11.561584%,14.526367%);fill-opacity:1;" d="M 43.390625 82.410156 L 46.875 81.40625 C 47.542969 81.214844 48.101563 82.035156 47.710938 82.632813 L 46.953125 83.78125 C 46.316406 84.769531 45.367188 85.476563 44.273438 85.792969 L 40.789063 86.789063 C 40.125 86.980469 39.570313 86.164063 39.953125 85.5625 L 40.710938 84.410156 C 41.351563 83.429688 42.300781 82.722656 43.390625 82.410156 "/>
<path style=" stroke:none;fill-rule:nonzero;fill:rgb(86.984253%,11.561584%,14.526367%);fill-opacity:1;" d="M 40.246094 88.605469 L 43.652344 87.371094 C 44.300781 87.128906 44.914063 87.90625 44.566406 88.53125 L 43.894531 89.734375 C 43.320313 90.761719 42.429688 91.53125 41.355469 91.914063 L 37.953125 93.15625 C 37.300781 93.394531 36.683594 92.617188 37.03125 91.992188 L 37.707031 90.789063 C 38.277344 89.765625 39.175781 88.996094 40.246094 88.605469 "/>
<path style=" stroke:none;fill-rule:nonzero;fill:rgb(86.984253%,11.561584%,14.526367%);fill-opacity:1;" d="M 37.535156 95.003906 L 40.84375 93.535156 C 41.476563 93.253906 42.140625 93.984375 41.839844 94.636719 L 41.253906 95.878906 C 40.757813 96.941406 39.917969 97.769531 38.875 98.234375 L 35.5625 99.710938 C 34.929688 99.988281 34.265625 99.257813 34.574219 98.613281 L 35.15625 97.367188 C 35.652344 96.304688 36.496094 95.472656 37.535156 95.003906 "/>
<path style=" stroke:none;fill-rule:nonzero;fill:rgb(86.984253%,11.561584%,14.526367%);fill-opacity:1;" d="M 35.277344 101.585938 L 38.480469 99.886719 C 39.089844 99.558594 39.808594 100.246094 39.546875 100.910156 L 39.050781 102.191406 C 38.625 103.28125 37.847656 104.175781 36.839844 104.707031 L 33.644531 106.410156 C 33.03125 106.734375 32.316406 106.054688 32.578125 105.390625 L 33.066406 104.101563 C 33.496094 103.007813 34.273438 102.125 35.277344 101.585938 "/>
<path style=" stroke:none;fill-rule:nonzero;fill:rgb(86.984253%,11.561584%,14.526367%);fill-opacity:1;" d="M 33.488281 108.304688 L 36.558594 106.382813 C 37.148438 106.015625 37.90625 106.652344 37.695313 107.332031 L 37.292969 108.644531 C 36.945313 109.769531 36.226563 110.707031 35.265625 111.3125 L 32.1875 113.226563 C 31.601563 113.601563 30.84375 112.96875 31.054688 112.28125 L 31.453125 110.96875 C 31.804688 109.847656 32.519531 108.90625 33.488281 108.304688 "/>
<path style=" stroke:none;fill-rule:nonzero;fill:rgb(86.984253%,11.561584%,14.526367%);fill-opacity:1;" d="M 32.164063 115.128906 L 35.101563 112.996094 C 35.660156 112.589844 36.460938 113.167969 36.296875 113.863281 L 35.984375 115.203125 C 35.71875 116.347656 35.070313 117.335938 34.148438 118.007813 L 31.21875 120.132813 C 30.65625 120.546875 29.855469 119.964844 30.019531 119.273438 L 30.332031 117.933594 C 30.601563 116.785156 31.246094 115.804688 32.164063 115.128906 "/>
<path style=" stroke:none;fill-rule:nonzero;fill:rgb(86.984253%,11.561584%,14.526367%);fill-opacity:1;" d="M 31.324219 122.03125 L 34.097656 119.703125 C 34.628906 119.253906 35.476563 119.78125 35.355469 120.480469 L 35.140625 121.839844 C 34.957031 123 34.378906 124.027344 33.507813 124.761719 L 30.730469 127.089844 C 30.199219 127.539063 29.355469 127.015625 29.472656 126.3125 L 29.6875 124.953125 C 29.875 123.796875 30.453125 122.765625 31.324219 122.03125 "/>
<path style=" stroke:none;fill-rule:nonzero;fill:rgb(86.984253%,11.561584%,14.526367%);fill-opacity:1;" d="M 30.972656 128.976563 L 33.574219 126.457031 C 34.074219 125.980469 34.949219 126.4375 34.882813 127.152344 L 34.765625 128.523438 C 34.660156 129.6875 34.152344 130.757813 33.335938 131.546875 L 30.722656 134.066406 C 30.226563 134.542969 29.351563 134.085938 29.417969 133.371094 L 29.542969 132.003906 C 29.648438 130.835938 30.144531 129.769531 30.972656 128.976563 "/>
<path style=" stroke:none;fill-rule:nonzero;fill:rgb(86.984253%,11.561584%,14.526367%);fill-opacity:1;" d="M 31.097656 135.925781 L 33.523438 133.238281 C 33.988281 132.722656 34.890625 133.117188 34.878906 133.832031 L 34.847656 135.210938 C 34.828125 136.378906 34.402344 137.480469 33.632813 138.328125 L 31.210938 141.023438 C 30.75 141.539063 29.84375 141.132813 29.859375 140.421875 L 29.886719 139.046875 C 29.910156 137.871094 30.335938 136.773438 31.097656 135.925781 "/>
<path style=" stroke:none;fill-rule:nonzero;fill:rgb(86.984253%,11.561584%,14.526367%);fill-opacity:1;" d="M 31.714844 142.851563 L 33.945313 139.996094 C 34.375 139.453125 35.300781 139.785156 35.335938 140.496094 L 35.410156 141.878906 C 35.464844 143.039063 35.113281 144.175781 34.414063 145.070313 L 32.179688 147.925781 C 31.757813 148.46875 30.824219 148.136719 30.785156 147.421875 L 30.71875 146.046875 C 30.660156 144.878906 31.011719 143.742188 31.714844 142.851563 "/>
<path style=" stroke:none;fill-rule:nonzero;fill:rgb(86.984253%,11.561584%,14.526367%);fill-opacity:1;" d="M 32.8125 149.722656 L 34.835938 146.71875 C 35.222656 146.136719 36.179688 146.40625 36.261719 147.117188 L 36.425781 148.484375 C 36.5625 149.648438 36.296875 150.792969 35.660156 151.738281 L 33.628906 154.742188 C 33.242188 155.324219 32.292969 155.050781 32.207031 154.339844 L 32.042969 152.976563 C 31.902344 151.8125 32.175781 150.664063 32.8125 149.722656 "/>
<path style=" stroke:none;fill-rule:nonzero;fill:rgb(86.984253%,11.561584%,14.526367%);fill-opacity:1;" d="M 34.382813 156.492188 L 36.195313 153.351563 C 36.542969 152.753906 37.511719 152.957031 37.644531 153.660156 L 37.90625 155.007813 C 38.125 156.160156 37.9375 157.324219 37.363281 158.3125 L 35.554688 161.449219 C 35.203125 162.050781 34.238281 161.847656 34.101563 161.144531 L 33.84375 159.792969 C 33.625 158.644531 33.820313 157.476563 34.382813 156.492188 "/>
<path style=" stroke:none;fill-rule:nonzero;fill:rgb(86.984253%,11.561584%,14.526367%);fill-opacity:1;" d="M 36.425781 163.136719 L 38.015625 159.875 C 38.320313 159.257813 39.296875 159.394531 39.476563 160.078125 L 39.828125 161.410156 C 40.136719 162.542969 40.023438 163.714844 39.527344 164.746094 L 37.9375 168.003906 C 37.636719 168.625 36.648438 168.488281 36.464844 167.800781 L 36.117188 166.472656 C 35.8125 165.335938 35.921875 164.160156 36.425781 163.136719 "/>
<path style=" stroke:none;fill-rule:nonzero;fill:rgb(86.984253%,11.561584%,14.526367%);fill-opacity:1;" d="M 38.925781 169.625 L 40.28125 166.265625 C 40.542969 165.621094 41.53125 165.683594 41.761719 166.367188 L 42.207031 167.664063 C 42.585938 168.777344 42.558594 169.957031 42.132813 171.015625 L 40.777344 174.371094 C 40.519531 175.015625 39.53125 174.949219 39.300781 174.273438 L 38.855469 172.972656 C 38.480469 171.859375 38.5 170.683594 38.925781 169.625 "/>
<path style=" stroke:none;fill-rule:nonzero;fill:rgb(86.984253%,11.561584%,14.526367%);fill-opacity:1;" d="M 41.871094 175.921875 L 42.992188 172.476563 C 43.203125 171.808594 44.191406 171.808594 44.46875 172.472656 L 45.003906 173.742188 C 45.457031 174.8125 45.519531 175.996094 45.167969 177.082031 L 44.050781 180.527344 C 43.832031 181.1875 42.84375 181.191406 42.570313 180.535156 L 42.035156 179.265625 C 41.574219 178.183594 41.523438 177.007813 41.871094 175.921875 "/>
<path style=" stroke:none;fill-rule:nonzero;fill:rgb(86.984253%,11.561584%,14.526367%);fill-opacity:1;" d="M 45.25 182 L 46.125 178.488281 C 46.292969 177.804688 47.285156 177.738281 47.605469 178.375 L 48.230469 179.597656 C 48.753906 180.652344 48.894531 181.820313 48.621094 182.925781 L 47.742188 186.445313 C 47.574219 187.117188 46.589844 187.183594 46.265625 186.546875 L 45.644531 185.320313 C 45.117188 184.277344 44.976563 183.101563 45.25 182 "/>
<path style=" stroke:none;fill-rule:nonzero;fill:rgb(86.984253%,11.561584%,14.526367%);fill-opacity:1;" d="M 49.042969 187.824219 L 49.671875 184.257813 C 49.796875 183.574219 50.769531 183.433594 51.140625 184.042969 L 51.847656 185.226563 C 52.445313 186.234375 52.664063 187.398438 52.46875 188.511719 L 51.84375 192.078125 C 51.71875 192.765625 50.742188 192.90625 50.375 192.292969 L 49.667969 191.113281 C 49.074219 190.105469 48.851563 188.945313 49.042969 187.824219 "/>
<path style=" stroke:none;fill-rule:nonzero;fill:rgb(86.984253%,11.561584%,14.526367%);fill-opacity:1;" d="M 53.234375 193.371094 L 53.617188 189.769531 C 53.6875 189.078125 54.648438 188.867188 55.0625 189.457031 L 55.847656 190.585938 C 56.523438 191.546875 56.820313 192.691406 56.699219 193.820313 L 56.320313 197.425781 C 56.25 198.113281 55.28125 198.324219 54.875 197.734375 L 54.089844 196.605469 C 53.421875 195.648438 53.121094 194.5 53.234375 193.371094 "/>
<path style=" stroke:none;fill-rule:nonzero;fill:rgb(86.984253%,11.561584%,14.526367%);fill-opacity:1;" d="M 57.808594 198.617188 L 57.9375 194.996094 C 57.960938 194.304688 58.910156 194.027344 59.355469 194.582031 L 60.226563 195.65625 C 60.957031 196.566406 61.335938 197.683594 61.292969 198.824219 L 61.167969 202.445313 C 61.148438 203.136719 60.199219 203.414063 59.75 202.855469 L 58.886719 201.78125 C 58.148438 200.867188 57.773438 199.753906 57.808594 198.617188 "/>
<path style=" stroke:none;fill-rule:nonzero;fill:rgb(86.984253%,11.561584%,14.526367%);fill-opacity:1;" d="M 62.734375 203.527344 L 62.605469 199.902344 C 62.585938 199.207031 63.507813 198.871094 63.996094 199.394531 L 64.929688 200.402344 C 65.730469 201.257813 66.183594 202.351563 66.230469 203.488281 L 66.351563 207.105469 C 66.375 207.804688 65.445313 208.144531 64.957031 207.617188 L 64.027344 206.609375 C 63.230469 205.75 62.769531 204.660156 62.734375 203.527344 "/>
<path style=" stroke:none;fill-rule:nonzero;fill:rgb(86.984253%,11.561584%,14.526367%);fill-opacity:1;" d="M 67.988281 208.078125 L 67.605469 204.472656 C 67.535156 203.789063 68.433594 203.378906 68.957031 203.871094 L 69.960938 204.8125 C 70.820313 205.613281 71.347656 206.664063 71.46875 207.800781 L 71.851563 211.40625 C 71.921875 212.09375 71.019531 212.492188 70.5 212.011719 L 69.492188 211.066406 C 68.632813 210.269531 68.105469 209.210938 67.988281 208.078125 "/>
<path style=" stroke:none;fill-rule:nonzero;fill:rgb(86.984253%,11.561584%,14.526367%);fill-opacity:1;" d="M 73.546875 212.257813 L 72.914063 208.691406 C 72.796875 208.007813 73.664063 207.535156 74.226563 207.992188 L 75.292969 208.859375 C 76.199219 209.597656 76.800781 210.617188 76.996094 211.734375 L 77.628906 215.300781 C 77.746094 215.984375 76.878906 216.449219 76.328125 216.003906 L 75.253906 215.136719 C 74.347656 214.390625 73.742188 213.382813 73.546875 212.257813 "/>
<path style=" stroke:none;fill-rule:nonzero;fill:rgb(86.984253%,11.561584%,14.526367%);fill-opacity:1;" d="M 79.386719 216.035156 L 78.503906 212.523438 C 78.335938 211.847656 79.175781 211.324219 79.761719 211.734375 L 80.882813 212.527344 C 81.84375 213.199219 82.519531 214.171875 82.789063 215.277344 L 83.671875 218.789063 C 83.839844 219.464844 83 219.988281 82.417969 219.574219 L 81.289063 218.789063 C 80.332031 218.113281 79.65625 217.144531 79.386719 216.035156 "/>
<path style=" stroke:none;fill-rule:nonzero;fill:rgb(86.984253%,11.561584%,14.526367%);fill-opacity:1;" d="M 85.472656 219.402344 L 84.351563 215.953125 C 84.136719 215.296875 84.929688 214.710938 85.542969 215.082031 L 86.722656 215.792969 C 87.722656 216.402344 88.464844 217.320313 88.816406 218.398438 L 89.9375 221.851563 C 90.152344 222.507813 89.351563 223.089844 88.738281 222.726563 L 87.5625 222.007813 C 86.5625 221.40625 85.824219 220.484375 85.472656 219.402344 "/>
<path style=" stroke:none;fill-rule:nonzero;fill:rgb(86.984253%,11.561584%,14.526367%);fill-opacity:1;" d="M 91.777344 222.328125 L 90.417969 218.972656 C 90.160156 218.328125 90.914063 217.691406 91.554688 218.015625 L 92.773438 218.644531 C 93.824219 219.179688 94.625 220.046875 95.046875 221.101563 L 96.402344 224.460938 C 96.667969 225.105469 95.914063 225.742188 95.277344 225.417969 L 94.050781 224.785156 C 93.003906 224.253906 92.203125 223.386719 91.777344 222.328125 "/>
<path style=" stroke:none;fill-rule:nonzero;fill:rgb(86.984253%,11.561584%,14.526367%);fill-opacity:1;" d="M 98.277344 224.8125 L 96.6875 221.558594 C 96.378906 220.9375 97.085938 220.242188 97.746094 220.527344 L 99.011719 221.070313 C 100.09375 221.53125 100.953125 222.339844 101.453125 223.363281 L 103.039063 226.617188 C 103.34375 227.242188 102.636719 227.929688 101.976563 227.648438 L 100.714844 227.105469 C 99.632813 226.644531 98.773438 225.839844 98.277344 224.8125 "/>
<path style=" stroke:none;fill-rule:nonzero;fill:rgb(86.984253%,11.561584%,14.526367%);fill-opacity:1;" d="M 104.929688 226.835938 L 103.117188 223.703125 C 102.769531 223.097656 103.421875 222.363281 104.105469 222.601563 L 105.402344 223.046875 C 106.515625 223.433594 107.425781 224.179688 107.996094 225.164063 L 109.804688 228.300781 C 110.15625 228.90625 109.496094 229.640625 108.816406 229.40625 L 107.523438 228.953125 C 106.410156 228.570313 105.496094 227.824219 104.929688 226.835938 "/>
<path style=" stroke:none;fill-rule:nonzero;fill:rgb(86.984253%,11.561584%,14.526367%);fill-opacity:1;" d="M 111.707031 228.390625 L 109.675781 225.394531 C 109.289063 224.8125 109.898438 224.035156 110.585938 224.21875 L 111.910156 224.582031 C 113.046875 224.886719 114.011719 225.570313 114.648438 226.519531 L 116.675781 229.515625 C 117.0625 230.09375 116.457031 230.871094 115.765625 230.6875 L 114.4375 230.324219 C 113.304688 230.019531 112.339844 229.335938 111.707031 228.390625 "/>
<path style=" stroke:none;fill-rule:nonzero;fill:rgb(86.984253%,11.561584%,14.526367%);fill-opacity:1;" d="M 118.574219 229.472656 L 116.351563 226.625 C 115.917969 226.074219 116.46875 225.253906 117.167969 225.390625 L 118.519531 225.660156 C 119.667969 225.882813 120.679688 226.496094 121.382813 227.394531 L 123.613281 230.246094 C 124.039063 230.796875 123.488281 231.617188 122.785156 231.480469 L 121.441406 231.210938 C 120.285156 230.984375 119.28125 230.375 118.574219 229.472656 "/>
<path style=" stroke:none;fill-rule:nonzero;fill:rgb(86.984253%,11.561584%,14.526367%);fill-opacity:1;" d="M 125.503906 230.074219 L 123.082031 227.382813 C 122.613281 226.867188 123.105469 226.011719 123.816406 226.101563 L 125.175781 226.265625 C 126.347656 226.410156 127.394531 226.953125 128.15625 227.800781 L 130.582031 230.492188 C 131.042969 231.007813 130.558594 231.867188 129.84375 231.777344 L 128.480469 231.605469 C 127.316406 231.457031 126.269531 230.921875 125.503906 230.074219 "/>
<path style=" stroke:none;fill-rule:nonzero;fill:rgb(86.984253%,11.561584%,14.526367%);fill-opacity:1;" d="M 132.460938 230.1875 L 129.855469 227.664063 C 129.355469 227.1875 129.777344 226.300781 130.5 226.339844 L 131.871094 226.417969 C 133.042969 226.480469 134.128906 226.945313 134.949219 227.730469 L 137.554688 230.25 C 138.054688 230.730469 137.628906 231.621094 136.910156 231.582031 L 135.539063 231.507813 C 134.359375 231.441406 133.277344 230.972656 132.460938 230.1875 "/>
<path style=" stroke:none;fill-rule:nonzero;fill:rgb(86.984253%,11.561584%,14.526367%);fill-opacity:1;" d="M 139.402344 229.816406 L 136.628906 227.480469 C 136.097656 227.035156 136.464844 226.125 137.175781 226.113281 L 138.550781 226.09375 C 139.726563 226.070313 140.839844 226.460938 141.714844 227.195313 L 144.496094 229.523438 C 145.019531 229.964844 144.660156 230.886719 143.941406 230.894531 L 142.5625 230.910156 C 141.386719 230.933594 140.277344 230.542969 139.402344 229.816406 "/>
<path style=" stroke:none;fill-rule:nonzero;fill:rgb(86.984253%,11.561584%,14.526367%);fill-opacity:1;" d="M 146.3125 228.960938 L 143.371094 226.832031 C 142.816406 226.425781 143.117188 225.480469 143.828125 225.421875 L 145.203125 225.304688 C 146.363281 225.203125 147.507813 225.511719 148.429688 226.1875 L 151.367188 228.3125 C 151.925781 228.722656 151.628906 229.660156 150.910156 229.71875 L 149.539063 229.839844 C 148.371094 229.9375 147.230469 229.625 146.3125 228.960938 "/>
<path style=" stroke:none;fill-rule:nonzero;fill:rgb(86.984253%,11.561584%,14.526367%);fill-opacity:1;" d="M 153.132813 227.625 L 150.0625 225.699219 C 149.46875 225.335938 149.703125 224.375 150.414063 224.269531 L 151.773438 224.054688 C 152.929688 223.875 154.089844 224.105469 155.058594 224.710938 L 158.132813 226.625 C 158.722656 226.992188 158.484375 227.953125 157.777344 228.066406 L 156.417969 228.277344 C 155.257813 228.457031 154.101563 228.226563 153.132813 227.625 "/>
<path style=" stroke:none;fill-rule:nonzero;fill:rgb(86.984253%,11.561584%,14.526367%);fill-opacity:1;" d="M 159.851563 225.8125 L 156.648438 224.117188 C 156.035156 223.785156 156.210938 222.816406 156.902344 222.65625 L 158.238281 222.351563 C 159.390625 222.089844 160.558594 222.242188 161.570313 222.769531 L 164.765625 224.472656 C 165.378906 224.800781 165.214844 225.773438 164.515625 225.929688 L 163.171875 226.234375 C 162.027344 226.5 160.855469 226.351563 159.851563 225.8125 "/>
<path style=" stroke:none;fill-rule:nonzero;fill:rgb(86.984253%,11.561584%,14.526367%);fill-opacity:1;" d="M 166.425781 223.546875 L 163.113281 222.070313 C 162.476563 221.789063 162.574219 220.808594 163.257813 220.597656 L 164.578125 220.199219 C 165.699219 219.863281 166.878906 219.929688 167.921875 220.390625 L 171.230469 221.859375 C 171.863281 222.144531 171.765625 223.125 171.082031 223.339844 L 169.765625 223.734375 C 168.644531 224.074219 167.460938 224.007813 166.425781 223.546875 "/>
<path style=" stroke:none;fill-rule:nonzero;fill:rgb(86.984253%,11.561584%,14.526367%);fill-opacity:1;" d="M 172.824219 220.824219 L 169.417969 219.578125 C 168.761719 219.34375 168.796875 218.359375 169.460938 218.101563 L 170.75 217.613281 C 171.851563 217.199219 173.027344 217.179688 174.097656 217.570313 L 177.5 218.804688 C 178.15625 219.042969 178.125 220.035156 177.460938 220.289063 L 176.171875 220.777344 C 175.070313 221.195313 173.894531 221.207031 172.824219 220.824219 "/>
<path style=" stroke:none;fill-rule:nonzero;fill:rgb(86.984253%,11.561584%,14.526367%);fill-opacity:1;" d="M 179.015625 217.660156 L 175.53125 216.660156 C 174.867188 216.46875 174.824219 215.480469 175.46875 215.175781 L 176.722656 214.601563 C 177.789063 214.109375 178.96875 214.015625 180.0625 214.324219 L 183.542969 215.324219 C 184.210938 215.515625 184.25 216.5 183.601563 216.800781 L 182.351563 217.382813 C 181.289063 217.875 180.109375 217.96875 179.015625 217.660156 "/>
<path style=" stroke:none;fill-rule:nonzero;fill:rgb(86.984253%,11.561584%,14.526367%);fill-opacity:1;" d="M 184.972656 214.070313 L 181.429688 213.316406 C 180.746094 213.171875 180.640625 212.195313 181.269531 211.84375 L 182.472656 211.179688 C 183.496094 210.617188 184.667969 210.433594 185.785156 210.675781 L 189.328125 211.425781 C 190.007813 211.574219 190.113281 212.550781 189.488281 212.902344 L 188.28125 213.5625 C 187.25 214.125 186.085938 214.300781 184.972656 214.070313 "/>
<path style=" stroke:none;fill-rule:nonzero;fill:rgb(86.984253%,11.561584%,14.526367%);fill-opacity:1;" d="M 190.667969 210.078125 L 187.074219 209.570313 C 186.382813 209.476563 186.210938 208.503906 186.8125 208.117188 L 187.96875 207.367188 C 188.953125 206.730469 190.109375 206.46875 191.230469 206.625 L 194.824219 207.128906 C 195.507813 207.230469 195.6875 208.203125 195.089844 208.585938 L 193.925781 209.332031 C 192.941406 209.972656 191.792969 210.230469 190.667969 210.078125 "/>
<path style=" stroke:none;fill-rule:nonzero;fill:rgb(86.984253%,11.561584%,14.526367%);fill-opacity:1;" d="M 196.0625 205.695313 L 192.449219 205.441406 C 191.757813 205.390625 191.511719 204.441406 192.089844 204.003906 L 193.191406 203.179688 C 194.125 202.480469 195.257813 202.132813 196.394531 202.21875 L 200.007813 202.46875 C 200.707031 202.515625 200.945313 203.472656 200.371094 203.902344 L 199.265625 204.730469 C 198.332031 205.433594 197.199219 205.769531 196.0625 205.695313 "/>
<path style=" stroke:none;fill-rule:evenodd;fill:rgb(86.984253%,11.561584%,14.526367%);fill-opacity:1;" d="M 122.042969 46.234375 L 127.335938 50.042969 L 125.285156 56.289063 L 130.546875 52.433594 L 135.851563 56.308594 L 133.808594 50.117188 L 139.136719 46.269531 L 132.617188 46.296875 L 130.601563 40.042969 L 128.617188 46.25 Z M 122.042969 46.234375 "/>
<path style=" stroke:none;fill-rule:evenodd;fill:rgb(86.984253%,11.561584%,14.526367%);fill-opacity:1;" d="M 92.140625 60.109375 L 95.574219 54.5625 L 91.289063 49.578125 L 97.621094 51.128906 L 101.042969 45.515625 L 101.523438 52.019531 L 107.921875 53.535156 L 101.882813 56.003906 L 102.417969 62.554688 L 98.203125 57.574219 Z M 92.140625 60.109375 "/>
<path style=" stroke:none;fill-rule:evenodd;fill:rgb(86.984253%,11.561584%,14.526367%);fill-opacity:1;" d="M 68.09375 80.191406 L 69.140625 73.757813 L 63.277344 70.789063 L 69.722656 69.796875 L 70.730469 63.304688 L 73.667969 69.125 L 80.15625 68.082031 L 75.523438 72.671875 L 78.523438 78.519531 L 72.730469 75.53125 Z M 68.09375 80.191406 "/>
<path style=" stroke:none;fill-rule:evenodd;fill:rgb(86.984253%,11.561584%,14.526367%);fill-opacity:1;" d="M 53.5625 107.953125 L 52.070313 101.601563 L 45.511719 101.105469 L 51.089844 97.722656 L 49.535156 91.335938 L 54.476563 95.59375 L 60.070313 92.144531 L 57.546875 98.15625 L 62.558594 102.410156 L 56.058594 101.871094 Z M 53.5625 107.953125 "/>
<path style=" stroke:none;fill-rule:evenodd;fill:rgb(86.984253%,11.561584%,14.526367%);fill-opacity:1;" d="M 50.761719 139.15625 L 46.949219 133.863281 L 40.703125 135.910156 L 44.5625 130.65625 L 40.683594 125.347656 L 46.875 127.390625 L 50.722656 122.0625 L 50.695313 128.582031 L 56.953125 130.597656 L 50.742188 132.582031 Z M 50.761719 139.15625 "/>
<path style=" stroke:none;fill-rule:evenodd;fill:rgb(86.984253%,11.561584%,14.526367%);fill-opacity:1;" d="M 60.113281 169.058594 L 54.570313 165.625 L 49.582031 169.910156 L 51.132813 163.574219 L 45.519531 160.15625 L 52.023438 159.675781 L 53.539063 153.28125 L 56.003906 159.3125 L 62.558594 158.78125 L 57.582031 162.992188 Z M 60.113281 169.058594 "/>
<path style=" stroke:none;fill-rule:evenodd;fill:rgb(86.984253%,11.561584%,14.526367%);fill-opacity:1;" d="M 80.195313 193.105469 L 73.761719 192.058594 L 70.792969 197.921875 L 69.800781 191.476563 L 63.308594 190.464844 L 69.128906 187.53125 L 68.085938 181.042969 L 72.675781 185.671875 L 78.523438 182.675781 L 75.539063 188.46875 Z M 80.195313 193.105469 "/>
<path style=" stroke:none;fill-rule:evenodd;fill:rgb(86.984253%,11.561584%,14.526367%);fill-opacity:1;" d="M 107.953125 207.636719 L 101.609375 209.128906 L 101.109375 215.683594 L 97.730469 210.109375 L 91.339844 211.660156 L 95.597656 206.722656 L 92.152344 201.125 L 98.160156 203.648438 L 102.414063 198.636719 L 101.875 205.136719 Z M 107.953125 207.636719 "/>
<path style=" stroke:none;fill-rule:evenodd;fill:rgb(86.984253%,11.561584%,14.526367%);fill-opacity:1;" d="M 139.160156 210.4375 L 133.867188 214.246094 L 135.917969 220.492188 L 130.65625 216.636719 L 125.351563 220.515625 L 127.394531 214.324219 L 122.066406 210.472656 L 128.585938 210.5 L 130.601563 204.246094 L 132.585938 210.453125 Z M 139.160156 210.4375 "/>
<path style=" stroke:none;fill-rule:evenodd;fill:rgb(86.984253%,11.561584%,14.526367%);fill-opacity:1;" d="M 169.0625 201.085938 L 165.632813 206.628906 L 169.914063 211.617188 L 163.582031 210.066406 L 160.160156 215.679688 L 159.679688 209.179688 L 153.28125 207.660156 L 159.316406 205.191406 L 158.78125 198.640625 L 162.996094 203.617188 Z M 169.0625 201.085938 "/>
<path style=" stroke:none;fill-rule:evenodd;fill:rgb(86.984253%,11.561584%,14.526367%);fill-opacity:1;" d="M 193.109375 181 L 192.0625 187.4375 L 197.925781 190.40625 L 191.480469 191.394531 L 190.472656 197.890625 L 187.535156 192.066406 L 181.046875 193.113281 L 185.679688 188.523438 L 182.679688 182.675781 L 188.472656 185.660156 Z M 193.109375 181 "/>
<path style=" stroke:none;fill-rule:evenodd;fill:rgb(86.984253%,11.561584%,14.526367%);fill-opacity:1;" d="M 207.640625 153.242188 L 209.136719 159.589844 L 215.6875 160.089844 L 210.113281 163.46875 L 211.664063 169.859375 L 206.726563 165.601563 L 201.132813 169.050781 L 203.652344 163.035156 L 198.644531 158.78125 L 205.144531 159.324219 Z M 207.640625 153.242188 "/>
<path style=" stroke:none;fill-rule:evenodd;fill:rgb(86.984253%,11.561584%,14.526367%);fill-opacity:1;" d="M 210.441406 122.039063 L 214.25 127.328125 L 220.496094 125.28125 L 216.640625 130.539063 L 220.519531 135.847656 L 214.328125 133.804688 L 210.476563 139.132813 L 210.503906 132.613281 L 204.25 130.597656 L 210.460938 128.613281 Z M 210.441406 122.039063 "/>
<path style=" stroke:none;fill-rule:evenodd;fill:rgb(86.984253%,11.561584%,14.526367%);fill-opacity:1;" d="M 201.089844 92.136719 L 206.632813 95.566406 L 211.621094 91.285156 L 210.070313 97.617188 L 215.683594 101.039063 L 209.179688 101.519531 L 207.664063 107.914063 L 205.195313 101.882813 L 198.644531 102.414063 L 203.621094 98.199219 Z M 201.089844 92.136719 "/>
<path style=" stroke:none;fill-rule:evenodd;fill:rgb(86.984253%,11.561584%,14.526367%);fill-opacity:1;" d="M 181.007813 68.089844 L 187.441406 69.136719 L 190.410156 63.273438 L 191.398438 69.71875 L 197.894531 70.726563 L 192.070313 73.664063 L 193.117188 80.152344 L 188.527344 75.519531 L 182.679688 78.519531 L 185.664063 72.722656 Z M 181.007813 68.089844 "/>
<path style=" stroke:none;fill-rule:evenodd;fill:rgb(86.984253%,11.561584%,14.526367%);fill-opacity:1;" d="M 153.246094 53.558594 L 159.597656 52.066406 L 160.09375 45.511719 L 163.476563 51.085938 L 169.863281 49.535156 L 165.605469 54.472656 L 169.054688 60.066406 L 163.042969 57.546875 L 158.789063 62.554688 L 159.328125 56.054688 Z M 153.246094 53.558594 "/>
<path style=" stroke:none;fill-rule:nonzero;fill:rgb(86.984253%,11.561584%,14.526367%);fill-opacity:1;" d="M 130.613281 182.136719 C 102.191406 182.140625 79.066406 159.023438 79.0625 130.601563 C 79.058594 102.179688 102.175781 79.054688 130.597656 79.050781 C 159.019531 79.046875 182.148438 102.164063 182.152344 130.585938 C 182.15625 159.007813 159.03125 182.132813 130.613281 182.136719 "/>
<path style=" stroke:none;fill-rule:nonzero;fill:rgb(86.984253%,11.561584%,14.526367%);fill-opacity:1;" d="M 130.597656 62.746094 C 93.183594 62.753906 62.75 93.191406 62.753906 130.605469 C 62.757813 168.015625 93.203125 198.445313 130.617188 198.441406 C 168.027344 198.4375 198.460938 167.996094 198.453125 130.585938 C 198.449219 93.171875 168.007813 62.742188 130.597656 62.746094 Z M 130.617188 199.996094 C 92.347656 200 61.207031 168.871094 61.203125 130.605469 C 61.195313 92.335938 92.328125 61.195313 130.597656 61.191406 C 168.863281 61.1875 200 92.316406 200.007813 130.582031 C 200.011719 168.851563 168.882813 199.992188 130.617188 199.996094 "/>
<path style=" stroke:none;fill-rule:nonzero;fill:rgb(86.984253%,11.561584%,14.526367%);fill-opacity:1;" d="M 98.628906 183.363281 L 100.542969 184.566406 L 99.695313 185.921875 L 94.210938 182.476563 L 95.0625 181.125 L 97.011719 182.347656 L 100.636719 176.570313 L 102.253906 177.585938 Z M 98.628906 183.363281 "/>
<path style=" stroke:none;fill-rule:nonzero;fill:rgb(86.984253%,11.561584%,14.526367%);fill-opacity:1;" d="M 89.433594 180.460938 C 89.109375 180.828125 88.582031 180.859375 88.21875 180.539063 C 87.871094 180.234375 87.847656 179.710938 88.167969 179.347656 C 88.476563 179 88.996094 178.941406 89.351563 179.253906 C 89.722656 179.582031 89.742188 180.113281 89.433594 180.460938 Z M 89.917969 179.105469 L 93.121094 175.464844 C 94.082031 174.375 94.15625 173.460938 93.429688 172.816406 C 92.679688 172.15625 91.804688 172.316406 90.820313 173.433594 L 87.613281 177.070313 L 86.191406 175.816406 L 89.316406 172.269531 C 91.035156 170.320313 92.835938 170.261719 94.484375 171.714844 C 96.074219 173.117188 96.234375 174.828125 94.453125 176.84375 L 91.347656 180.367188 Z M 87.484375 178.742188 C 87.164063 179.109375 86.644531 179.152344 86.277344 178.828125 C 85.925781 178.515625 85.902344 177.996094 86.222656 177.628906 C 86.53125 177.28125 87.046875 177.222656 87.414063 177.546875 C 87.785156 177.871094 87.792969 178.394531 87.484375 178.742188 "/>
<path style=" stroke:none;fill-rule:nonzero;fill:rgb(86.984253%,11.561584%,14.526367%);fill-opacity:1;" d="M 84.988281 168.882813 L 84.515625 168.300781 C 83.921875 167.566406 83.199219 167.425781 82.625 167.890625 C 82.023438 168.375 82.054688 169.03125 82.59375 169.714844 C 82.882813 170.074219 83.078125 170.257813 83.183594 170.34375 Z M 83.363281 172.628906 C 82.902344 172.214844 82.269531 171.554688 81.632813 170.769531 C 80.84375 169.800781 80.441406 169 80.433594 168.238281 C 80.429688 167.597656 80.710938 167.015625 81.3125 166.527344 C 82.148438 165.851563 83.199219 165.980469 83.859375 166.378906 L 83.890625 166.355469 C 83.703125 165.746094 83.933594 165.144531 84.402344 164.492188 C 84.972656 163.6875 85.664063 162.792969 85.808594 162.460938 L 87.035156 163.976563 C 86.941406 164.234375 86.53125 164.820313 85.886719 165.667969 C 85.210938 166.5 85.21875 166.960938 85.695313 167.574219 L 86.054688 168.019531 L 88.625 165.9375 L 89.8125 167.398438 Z M 83.363281 172.628906 "/>
<path style=" stroke:none;fill-rule:nonzero;fill:rgb(86.984253%,11.561584%,14.526367%);fill-opacity:1;" d="M 77.226563 164.71875 L 76.285156 163.082031 L 79.511719 161.226563 L 79.492188 161.195313 C 79.121094 161.195313 78.757813 161.171875 78.40625 161.160156 L 75.027344 160.894531 L 73.863281 158.867188 L 78.359375 159.496094 L 81.085938 154.546875 L 82.199219 156.472656 L 80.074219 160.070313 L 81.203125 160.257813 L 83.582031 158.886719 L 84.523438 160.523438 Z M 77.226563 164.71875 "/>
<path style=" stroke:none;fill-rule:nonzero;fill:rgb(86.984253%,11.561584%,14.526367%);fill-opacity:1;" d="M 71.808594 154.042969 L 79.578125 150.792969 L 80.3125 152.554688 L 72.542969 155.804688 Z M 71.269531 156.230469 C 70.820313 156.417969 70.328125 156.207031 70.136719 155.753906 C 69.957031 155.316406 70.164063 154.839844 70.613281 154.652344 C 71.027344 154.476563 71.535156 154.660156 71.71875 155.09375 C 71.910156 155.558594 71.6875 156.054688 71.269531 156.230469 "/>
<path style=" stroke:none;fill-rule:nonzero;fill:rgb(86.984253%,11.561584%,14.526367%);fill-opacity:1;" d="M 77.988281 146.21875 L 74.667969 147.144531 L 70.585938 151.039063 L 70 148.945313 L 71.722656 147.574219 C 72.242188 147.15625 72.632813 146.867188 73.105469 146.515625 L 73.097656 146.488281 C 72.539063 146.449219 72.015625 146.386719 71.371094 146.308594 L 69.195313 146.03125 L 68.625 143.972656 L 74.097656 145.328125 L 77.480469 144.390625 Z M 77.988281 146.21875 "/>
<path style=" stroke:none;fill-rule:nonzero;fill:rgb(86.984253%,11.561584%,14.526367%);fill-opacity:1;" d="M 72.277344 135.0625 L 72.648438 138.140625 L 74.628906 137.902344 L 74.21875 134.464844 L 75.765625 134.277344 L 76.40625 139.613281 L 68.046875 140.617188 L 67.429688 135.457031 L 68.976563 135.273438 L 69.371094 138.535156 L 71.105469 138.324219 L 70.738281 135.25 Z M 72.277344 135.0625 "/>
<path style=" stroke:none;fill-rule:nonzero;fill:rgb(86.984253%,11.561584%,14.526367%);fill-opacity:1;" d="M 76.121094 121.71875 C 76.257813 122.085938 76.367188 122.886719 76.257813 123.90625 C 75.957031 126.800781 74 128.105469 71.613281 127.855469 C 68.753906 127.558594 67.375 125.355469 67.636719 122.820313 C 67.742188 121.839844 68.019531 121.113281 68.226563 120.796875 L 69.6875 121.335938 C 69.488281 121.707031 69.285156 122.226563 69.214844 122.898438 C 69.058594 124.398438 69.84375 125.660156 71.710938 125.859375 C 73.386719 126.03125 74.546875 125.148438 74.722656 123.457031 C 74.78125 122.882813 74.726563 122.238281 74.613281 121.847656 Z M 76.121094 121.71875 "/>
<path style=" stroke:none;fill-rule:nonzero;fill:rgb(86.984253%,11.561584%,14.526367%);fill-opacity:1;" d="M 69.144531 115.386719 L 73.824219 116.664063 C 75.222656 117.046875 76.082031 116.710938 76.335938 115.769531 C 76.601563 114.804688 76.070313 114.089844 74.632813 113.699219 L 69.957031 112.421875 L 70.457031 110.589844 L 75.015625 111.832031 C 77.523438 112.519531 78.371094 114.109375 77.792969 116.234375 C 77.230469 118.28125 75.765625 119.179688 73.179688 118.472656 L 68.640625 117.234375 Z M 69.144531 115.386719 "/>
<path style=" stroke:none;fill-rule:nonzero;fill:rgb(86.984253%,11.561584%,14.526367%);fill-opacity:1;" d="M 79.730469 102.394531 C 78.804688 101.984375 77.695313 101.472656 76.597656 100.929688 L 76.582031 100.960938 C 77.425781 101.675781 78.34375 102.519531 79.085938 103.25 L 81.574219 105.625 L 80.914063 106.957031 L 77.597656 106.316406 C 76.589844 106.125 75.386719 105.847656 74.3125 105.542969 L 74.304688 105.5625 C 75.300781 106.113281 76.445313 106.722656 77.359375 107.242188 L 80.160156 108.796875 L 79.375 110.375 L 72.070313 106.15625 L 73.195313 103.882813 L 76.078125 104.394531 C 77.070313 104.589844 78.125 104.820313 79.09375 105.09375 L 79.109375 105.058594 C 78.34375 104.414063 77.472656 103.660156 76.753906 103 L 74.648438 100.949219 L 75.75 98.726563 L 83.5 102.046875 L 82.671875 103.714844 Z M 79.730469 102.394531 "/>
<path style=" stroke:none;fill-rule:nonzero;fill:rgb(86.984253%,11.561584%,14.526367%);fill-opacity:1;" d="M 79.511719 93.183594 L 82.074219 95.160156 L 83.992188 92.675781 L 81.429688 90.699219 L 82.589844 89.195313 L 89.257813 94.339844 L 88.097656 95.84375 L 85.308594 93.691406 L 83.390625 96.175781 L 86.183594 98.332031 L 85.015625 99.84375 L 78.34375 94.699219 Z M 79.511719 93.183594 "/>
<path style=" stroke:none;fill-rule:nonzero;fill:rgb(86.984253%,11.561584%,14.526367%);fill-opacity:1;" d="M 86.949219 84.75 L 90.203125 88.347656 C 91.171875 89.421875 92.074219 89.601563 92.800781 88.945313 C 93.542969 88.273438 93.480469 87.390625 92.484375 86.285156 L 89.230469 82.6875 L 90.640625 81.417969 L 93.808594 84.921875 C 95.550781 86.847656 95.40625 88.644531 93.773438 90.117188 C 92.199219 91.542969 90.484375 91.507813 88.683594 89.515625 L 85.535156 86.03125 Z M 86.949219 84.75 "/>
<path style=" stroke:none;fill-rule:nonzero;fill:rgb(86.984253%,11.561584%,14.526367%);fill-opacity:1;" d="M 97.65625 80.988281 L 98.289063 80.582031 C 99.089844 80.070313 99.308594 79.371094 98.910156 78.75 C 98.492188 78.097656 97.84375 78.050781 97.097656 78.511719 C 96.710938 78.761719 96.507813 78.933594 96.40625 79.027344 Z M 94.117188 78.949219 C 94.578125 78.539063 95.308594 77.980469 96.15625 77.4375 C 97.210938 76.765625 98.050781 76.453125 98.808594 76.527344 C 99.445313 76.597656 99.996094 76.941406 100.414063 77.59375 C 100.988281 78.5 100.746094 79.53125 100.28125 80.140625 L 100.296875 80.175781 C 100.921875 80.058594 101.496094 80.355469 102.089844 80.894531 C 102.824219 81.554688 103.636719 82.339844 103.949219 82.523438 L 102.308594 83.574219 C 102.066406 83.449219 101.527344 82.976563 100.757813 82.238281 C 100 81.476563 99.542969 81.429688 98.882813 81.835938 L 98.402344 82.144531 L 100.183594 84.933594 L 98.59375 85.953125 Z M 94.117188 78.949219 "/>
<path style=" stroke:none;fill-rule:nonzero;fill:rgb(86.984253%,11.561584%,14.526367%);fill-opacity:1;" d="M 104.242188 73.066406 L 107.863281 80.660156 L 106.136719 81.480469 L 102.519531 73.890625 Z M 102.035156 72.640625 C 101.824219 72.199219 102.011719 71.695313 102.449219 71.484375 C 102.878906 71.28125 103.367188 71.464844 103.578125 71.902344 C 103.769531 72.308594 103.613281 72.824219 103.1875 73.03125 C 102.734375 73.246094 102.226563 73.046875 102.035156 72.640625 "/>
<path style=" stroke:none;fill-rule:nonzero;fill:rgb(86.984253%,11.561584%,14.526367%);fill-opacity:1;" d="M 112.355469 78.847656 L 111.265625 75.578125 L 107.175781 71.703125 L 109.238281 71.015625 L 110.691406 72.664063 C 111.132813 73.160156 111.441406 73.53125 111.816406 73.988281 L 111.839844 73.976563 C 111.855469 73.425781 111.886719 72.898438 111.9375 72.25 L 112.101563 70.0625 L 114.128906 69.390625 L 113.046875 74.921875 L 114.15625 78.25 Z M 112.355469 78.847656 "/>
<path style=" stroke:none;fill-rule:nonzero;fill:rgb(86.984253%,11.561584%,14.526367%);fill-opacity:1;" d="M 123.222656 72.578125 L 120.171875 73.101563 L 120.507813 75.070313 L 123.914063 74.488281 L 124.179688 76.03125 L 118.886719 76.9375 L 117.46875 68.628906 L 122.589844 67.753906 L 122.851563 69.292969 L 119.617188 69.847656 L 119.910156 71.574219 L 122.960938 71.050781 Z M 123.222656 72.578125 "/>
<path style=" stroke:none;fill-rule:nonzero;fill:rgb(86.984253%,11.561584%,14.526367%);fill-opacity:1;" d="M 128.214844 68.949219 L 125.953125 69 L 125.921875 67.402344 L 132.390625 67.261719 L 132.421875 68.859375 L 130.125 68.910156 L 130.273438 75.730469 L 128.363281 75.769531 Z M 128.214844 68.949219 "/>
<path style=" stroke:none;fill-rule:nonzero;fill:rgb(86.984253%,11.561584%,14.526367%);fill-opacity:1;" d="M 135.855469 66.199219 C 135.902344 65.714844 136.324219 65.378906 136.808594 65.425781 C 137.28125 65.472656 137.605469 65.878906 137.558594 66.363281 C 137.515625 66.8125 137.117188 67.175781 136.644531 67.128906 C 136.148438 67.082031 135.816406 66.644531 135.855469 66.199219 Z M 137.527344 67.703125 L 136.722656 76.082031 L 134.820313 75.898438 L 135.628906 67.519531 Z M 137.527344 67.703125 "/>
<path style=" stroke:none;fill-rule:nonzero;fill:rgb(86.984253%,11.561584%,14.526367%);fill-opacity:1;" d="M 148.351563 74.921875 L 148.363281 73.058594 C 148.367188 72.539063 148.402344 71.898438 148.429688 71.382813 L 148.402344 71.375 C 148.140625 71.816406 147.835938 72.390625 147.566406 72.816406 L 146.566406 74.378906 Z M 145.894531 75.664063 L 144.691406 77.558594 L 142.804688 76.984375 L 147.707031 69.675781 L 150.097656 70.398438 L 150.152344 79.214844 L 148.191406 78.617188 L 148.199219 76.363281 Z M 145.894531 75.664063 "/>
<path style=" stroke:none;fill-rule:nonzero;fill:rgb(86.984253%,11.561584%,14.526367%);fill-opacity:1;" d="M 154.558594 79.628906 C 154.6875 79.734375 154.921875 79.855469 155.132813 79.960938 C 156.667969 80.75 158.097656 80.40625 159.003906 78.613281 C 159.804688 77.054688 159.304688 75.769531 157.84375 75.03125 C 157.464844 74.839844 157.199219 74.75 157.039063 74.710938 Z M 155.945313 72.632813 C 156.621094 72.847656 157.464844 73.203125 158.320313 73.636719 C 159.75 74.355469 160.546875 75.082031 160.996094 75.992188 C 161.484375 76.96875 161.511719 78.140625 160.84375 79.46875 C 160.113281 80.90625 159.085938 81.636719 158.054688 81.882813 C 156.929688 82.140625 155.566406 81.847656 154.09375 81.101563 C 153.214844 80.65625 152.613281 80.289063 152.21875 80.019531 Z M 155.945313 72.632813 "/>
<path style=" stroke:none;fill-rule:nonzero;fill:rgb(86.984253%,11.561584%,14.526367%);fill-opacity:1;" d="M 166.023438 84.109375 L 166.664063 82.359375 C 166.84375 81.867188 167.097656 81.277344 167.292969 80.800781 L 167.273438 80.789063 C 166.875 81.113281 166.394531 81.550781 165.992188 81.863281 L 164.527344 83 Z M 163.457031 83.980469 L 161.691406 85.363281 L 160.105469 84.1875 L 167.1875 78.949219 L 169.191406 80.4375 L 166.273438 88.761719 L 164.632813 87.542969 L 165.394531 85.417969 Z M 163.457031 83.980469 "/>
<path style=" stroke:none;fill-rule:nonzero;fill:rgb(86.984253%,11.561584%,14.526367%);fill-opacity:1;" d="M 173.898438 84.402344 L 175.246094 85.761719 L 170.394531 90.5625 L 172.746094 92.945313 L 171.609375 94.066406 L 167.910156 90.328125 Z M 173.898438 84.402344 "/>
<path style=" stroke:none;fill-rule:nonzero;fill:rgb(86.984253%,11.561584%,14.526367%);fill-opacity:1;" d="M 178.910156 97.699219 L 177.0625 95.210938 L 175.457031 96.402344 L 177.523438 99.183594 L 176.269531 100.113281 L 173.0625 95.804688 L 179.820313 90.777344 L 182.921875 94.945313 L 181.671875 95.878906 L 179.707031 93.242188 L 178.304688 94.285156 L 180.15625 96.773438 Z M 178.910156 97.699219 "/>
<path style=" stroke:none;fill-rule:nonzero;fill:rgb(86.984253%,11.561584%,14.526367%);fill-opacity:1;" d="M 184.410156 100.476563 L 183.335938 98.488281 L 184.742188 97.730469 L 187.8125 103.421875 L 186.40625 104.183594 L 185.316406 102.160156 L 179.316406 105.398438 L 178.40625 103.71875 Z M 184.410156 100.476563 "/>
<path style=" stroke:none;fill-rule:nonzero;fill:rgb(86.984253%,11.561584%,14.526367%);fill-opacity:1;" d="M 188.050781 113.492188 L 188.21875 114.09375 C 188.484375 115.054688 189.027344 115.460938 189.632813 115.292969 C 190.242188 115.121094 190.4375 114.5625 190.203125 113.730469 C 190.09375 113.335938 190.003906 113.113281 189.9375 112.964844 Z M 184.453125 114.5 C 184.480469 114.683594 184.539063 114.902344 184.625 115.214844 C 184.859375 116.042969 185.378906 116.691406 186.230469 116.453125 C 187.046875 116.222656 187.167969 115.398438 186.910156 114.484375 L 186.738281 113.859375 Z M 190.640625 110.808594 C 190.875 111.261719 191.21875 112.214844 191.472656 113.128906 C 191.789063 114.25 191.871094 114.964844 191.6875 115.648438 C 191.546875 116.300781 191.105469 116.863281 190.371094 117.070313 C 189.648438 117.273438 188.859375 117.039063 188.265625 116.21875 L 188.242188 116.226563 C 188.25 117.222656 187.742188 118.101563 186.699219 118.398438 C 185.964844 118.601563 185.292969 118.425781 184.742188 118.035156 C 184.109375 117.578125 183.566406 116.664063 183.113281 115.054688 C 182.863281 114.152344 182.734375 113.460938 182.679688 113.035156 Z M 190.640625 110.808594 "/>
<path style=" stroke:none;fill-rule:nonzero;fill:rgb(86.984253%,11.561584%,14.526367%);fill-opacity:1;" d="M 188.777344 125.042969 L 190.496094 124.328125 C 190.976563 124.125 191.578125 123.90625 192.0625 123.730469 L 192.0625 123.703125 C 191.550781 123.636719 190.902344 123.582031 190.402344 123.496094 L 188.574219 123.195313 Z M 187.128906 123.074219 L 184.914063 122.714844 L 184.703125 120.753906 L 193.351563 122.394531 L 193.621094 124.875 L 185.539063 128.390625 L 185.316406 126.355469 L 187.394531 125.472656 Z M 187.128906 123.074219 "/>
<path style=" stroke:none;fill-rule:nonzero;fill:rgb(86.984253%,11.561584%,14.526367%);fill-opacity:1;" d="M 193.9375 131.101563 L 193.828125 132.984375 L 190.109375 132.773438 L 190.105469 132.808594 C 190.421875 133.015625 190.707031 133.230469 190.996094 133.4375 L 193.683594 135.503906 L 193.554688 137.835938 L 190.132813 134.851563 L 185.136719 137.507813 L 185.265625 135.289063 L 189.011719 133.433594 L 188.164063 132.660156 L 185.421875 132.507813 L 185.527344 130.621094 Z M 193.9375 131.101563 "/>
<path style=" stroke:none;fill-rule:nonzero;fill:rgb(86.984253%,11.561584%,14.526367%);fill-opacity:1;" d="M 187.324219 144.613281 L 189.183594 144.503906 C 189.703125 144.46875 190.347656 144.464844 190.863281 144.457031 L 190.867188 144.429688 C 190.410156 144.199219 189.816406 143.933594 189.371094 143.6875 L 187.742188 142.796875 Z M 186.414063 142.207031 L 184.445313 141.136719 L 184.894531 139.214844 L 192.515625 143.621094 L 191.957031 146.054688 L 183.160156 146.703125 L 183.621094 144.703125 L 185.875 144.558594 Z M 186.414063 142.207031 "/>
<path style=" stroke:none;fill-rule:nonzero;fill:rgb(86.984253%,11.561584%,14.526367%);fill-opacity:1;" d="M 182.453125 148.792969 L 190.214844 152.074219 L 189.347656 154.125 L 185.824219 154.535156 C 184.8125 154.648438 183.648438 154.703125 182.628906 154.675781 L 182.613281 154.710938 C 183.683594 155.03125 184.746094 155.4375 185.910156 155.929688 L 188.179688 156.886719 L 187.496094 158.5 L 179.738281 155.21875 L 180.515625 153.375 L 184.210938 152.984375 C 185.234375 152.875 186.449219 152.789063 187.523438 152.796875 L 187.523438 152.757813 C 186.480469 152.367188 185.375 151.929688 184.109375 151.394531 L 181.769531 150.40625 Z M 182.453125 148.792969 "/>
<path style=" stroke:none;fill-rule:nonzero;fill:rgb(86.984253%,11.561584%,14.526367%);fill-opacity:1;" d="M 185.449219 162.230469 L 184.433594 163.847656 L 178.65625 160.222656 L 176.878906 163.058594 L 175.523438 162.207031 L 178.316406 157.753906 Z M 185.449219 162.230469 "/>
<path style=" stroke:none;fill-rule:nonzero;fill:rgb(86.984253%,11.561584%,14.526367%);fill-opacity:1;" d="M 179.480469 170.789063 L 172.898438 165.535156 L 174.089844 164.039063 L 180.675781 169.292969 Z M 179.480469 170.789063 "/>
<path style=" stroke:none;fill-rule:nonzero;fill:rgb(86.984253%,11.561584%,14.526367%);fill-opacity:1;" d="M 176.042969 177.570313 C 175.828125 177.398438 175.488281 177.3125 175.113281 177.664063 C 174.734375 178.03125 174.78125 178.367188 174.941406 178.625 L 174.238281 179.300781 C 173.628906 178.625 173.554688 177.777344 174.410156 176.953125 C 175.304688 176.097656 176.128906 176.230469 176.765625 176.878906 Z M 166.25 172.933594 C 166.535156 172.382813 167.148438 171.414063 167.953125 170.644531 C 169.0625 169.578125 170.132813 169.089844 171.210938 169.09375 C 172.273438 169.082031 173.339844 169.582031 174.1875 170.484375 C 176.117188 172.515625 175.753906 175.078125 173.757813 176.992188 C 172.972656 177.746094 172.222656 178.167969 171.78125 178.3125 L 171.019531 176.9375 C 171.488281 176.757813 172.019531 176.476563 172.6875 175.835938 C 173.835938 174.738281 174.074219 173.257813 172.8125 171.941406 C 171.613281 170.6875 170.117188 170.699219 168.988281 171.78125 C 168.671875 172.082031 168.453125 172.359375 168.398438 172.519531 L 169.617188 173.792969 L 170.558594 172.894531 L 171.585938 173.964844 L 169.320313 176.136719 Z M 166.25 172.933594 "/>
<path style=" stroke:none;fill-rule:nonzero;fill:rgb(86.984253%,11.561584%,14.526367%);fill-opacity:1;" d="M 167.089844 182.285156 L 162.132813 175.480469 L 163.675781 174.351563 L 168.632813 181.160156 Z M 167.089844 182.285156 "/>
<path style=" stroke:none;fill-rule:nonzero;fill:rgb(86.984253%,11.561584%,14.526367%);fill-opacity:1;" d="M 130.617188 187.828125 C 129.269531 187.828125 128.179688 188.917969 128.179688 190.261719 C 128.179688 191.609375 129.269531 192.699219 130.617188 192.699219 C 131.960938 192.699219 133.050781 191.605469 133.050781 190.261719 C 133.050781 188.917969 131.957031 187.828125 130.617188 187.828125 "/>
<path style=" stroke:none;fill-rule:evenodd;fill:rgb(100%,100%,100%);fill-opacity:1;" d="M 124.265625 89.550781 C 122.742188 90.246094 121.472656 91.378906 120.605469 92.78125 C 119.792969 94.082031 119.332031 95.609375 119.332031 97.242188 C 119.335938 99.773438 120.441406 102.046875 122.199219 103.589844 C 123.691406 104.910156 125.652344 105.703125 127.800781 105.703125 C 127.941406 105.703125 128.089844 105.703125 128.226563 105.6875 C 129.554688 105.625 130.796875 105.261719 131.894531 104.644531 C 133.140625 103.957031 134.191406 102.964844 134.949219 101.761719 C 133.980469 102.839844 132.679688 103.605469 131.210938 103.886719 C 130.789063 103.972656 130.359375 104.011719 129.914063 104.011719 L 129.90625 104.011719 C 127.6875 104.011719 125.730469 102.941406 124.488281 101.300781 C 123.636719 100.171875 123.136719 98.765625 123.132813 97.242188 C 123.132813 96.65625 123.207031 96.09375 123.347656 95.554688 C 123.777344 93.898438 124.816406 92.484375 126.203125 91.582031 C 126.484375 91.394531 126.789063 91.222656 127.101563 91.082031 C 127.960938 90.691406 128.90625 90.472656 129.914063 90.472656 C 131.910156 90.472656 133.707031 91.335938 134.949219 92.71875 C 133.449219 90.355469 130.800781 88.777344 127.796875 88.777344 C 126.921875 88.777344 126.070313 88.910156 125.273438 89.160156 C 124.921875 89.269531 124.589844 89.394531 124.265625 89.550781 "/>
<path style=" stroke:none;fill-rule:evenodd;fill:rgb(100%,100%,100%);fill-opacity:1;" d="M 134.496094 97.234375 L 137.417969 98.1875 L 137.417969 101.265625 L 139.226563 98.773438 L 142.148438 99.726563 L 140.820313 97.890625 L 140.34375 97.234375 L 142.148438 94.753906 L 139.226563 95.695313 L 138.195313 94.285156 L 137.417969 93.214844 L 137.417969 96.285156 Z M 134.496094 97.234375 "/>
<path style=" stroke:none;fill-rule:evenodd;fill:rgb(100%,100%,100%);fill-opacity:1;" d="M 130.144531 113.207031 L 128.910156 120.917969 L 128.917969 152.390625 L 127.164063 152.390625 L 127.164063 153.511719 L 128.710938 153.511719 C 128.714844 160.472656 128.105469 161.140625 132.351563 161.140625 L 132.351563 160.175781 L 131.46875 160.175781 L 131.464844 153.511719 L 133.109375 153.511719 L 133.109375 152.382813 L 131.363281 152.382813 L 131.285156 120.890625 Z M 130.144531 113.207031 "/>
<path style=" stroke:none;fill-rule:evenodd;fill:rgb(100%,100%,100%);fill-opacity:1;" d="M 111.796875 148.972656 C 116.027344 148.972656 119.648438 146.363281 121.148438 142.667969 L 102.441406 142.671875 C 103.941406 146.367188 107.5625 148.972656 111.796875 148.972656 "/>
<path style=" stroke:none;fill-rule:evenodd;fill:rgb(100%,100%,100%);fill-opacity:1;" d="M 111.792969 116.230469 L 117.957031 142.226563 L 119.046875 142.226563 L 112.476563 114.53125 C 112.375 114.5625 112.277344 114.585938 112.175781 114.601563 C 112.050781 114.628906 111.921875 114.636719 111.792969 114.636719 C 111.550781 114.636719 111.320313 114.601563 111.105469 114.53125 L 104.546875 142.226563 L 105.632813 142.226563 Z M 111.792969 116.230469 "/>
<path style=" stroke:none;fill-rule:evenodd;fill:rgb(100%,100%,100%);fill-opacity:1;" d="M 111.792969 114.367188 C 113.03125 114.367188 114.039063 113.359375 114.039063 112.117188 C 114.039063 110.875 113.03125 109.867188 111.789063 109.867188 C 110.546875 109.867188 109.539063 110.875 109.539063 112.117188 C 109.539063 113.359375 110.550781 114.367188 111.792969 114.367188 Z M 111.789063 111.144531 C 112.328125 111.144531 112.761719 111.582031 112.761719 112.117188 C 112.761719 112.65625 112.328125 113.09375 111.792969 113.09375 C 111.25 113.09375 110.816406 112.65625 110.816406 112.117188 C 110.816406 111.582031 111.25 111.144531 111.789063 111.144531 "/>
<path style=" stroke:none;fill-rule:evenodd;fill:rgb(100%,100%,100%);fill-opacity:1;" d="M 129.96875 113.207031 L 130.398438 113.207031 L 146.167969 113.203125 C 145.851563 112.878906 145.769531 112.453125 145.765625 112.113281 C 145.761719 111.765625 145.851563 111.347656 146.167969 111.023438 L 130.738281 111.027344 L 114.09375 111.027344 C 114.410156 111.351563 114.488281 111.722656 114.488281 112.117188 C 114.488281 112.515625 114.410156 112.882813 114.09375 113.207031 Z M 129.96875 113.207031 "/>
<path style=" stroke:none;fill-rule:evenodd;fill:rgb(100%,100%,100%);fill-opacity:1;" d="M 148.472656 114.363281 C 149.714844 114.363281 150.722656 113.355469 150.722656 112.113281 C 150.722656 110.871094 149.714844 109.863281 148.472656 109.863281 C 147.230469 109.863281 146.226563 110.871094 146.226563 112.113281 C 146.226563 113.355469 147.230469 114.363281 148.472656 114.363281 Z M 148.472656 111.140625 C 149.011719 111.140625 149.445313 111.574219 149.445313 112.113281 C 149.445313 112.648438 149.011719 113.085938 148.472656 113.085938 C 147.933594 113.089844 147.5 112.648438 147.5 112.113281 C 147.5 111.574219 147.933594 111.140625 148.472656 111.140625 "/>
<path style=" stroke:none;fill-rule:evenodd;fill:rgb(100%,100%,100%);fill-opacity:1;" d="M 148.480469 148.964844 C 152.710938 148.964844 156.335938 146.359375 157.832031 142.660156 L 139.125 142.664063 C 140.625 146.363281 144.246094 148.96875 148.480469 148.964844 "/>
<path style=" stroke:none;fill-rule:evenodd;fill:rgb(100%,100%,100%);fill-opacity:1;" d="M 148.472656 114.632813 C 148.34375 114.632813 148.214844 114.621094 148.089844 114.597656 C 147.988281 114.582031 147.886719 114.558594 147.789063 114.527344 L 141.226563 142.222656 L 142.316406 142.222656 L 148.476563 116.222656 L 154.640625 142.21875 L 155.726563 142.21875 L 149.15625 114.527344 C 148.941406 114.59375 148.714844 114.632813 148.472656 114.632813 "/>
<path style=" stroke:none;fill-rule:evenodd;fill:rgb(100%,100%,100%);fill-opacity:1;" d="M 94.070313 163.21875 L 98.691406 165.675781 C 110.230469 162.066406 122.394531 161.375 130.65625 172.023438 L 130.667969 168.394531 C 123.230469 160.609375 110.570313 156.628906 94.070313 163.21875 "/>
<path style=" stroke:none;fill-rule:evenodd;fill:rgb(100%,100%,100%);fill-opacity:1;" d="M 99.601563 158.34375 L 96.476563 156.484375 C 108.210938 153.46875 122.675781 155.703125 130.75 166.570313 C 121.804688 157.660156 109.964844 156.839844 99.601563 158.34375 "/>
<path style=" stroke:none;fill-rule:evenodd;fill:rgb(100%,100%,100%);fill-opacity:1;" d="M 98.457031 151.003906 C 107.65625 150.300781 118.152344 151.089844 127.667969 161.265625 C 122.148438 156.910156 116.015625 152.488281 102.199219 153.175781 Z M 98.457031 151.003906 "/>
<path style=" stroke:none;fill-rule:evenodd;fill:rgb(100%,100%,100%);fill-opacity:1;" d="M 167.140625 163.207031 L 162.523438 165.664063 C 150.984375 162.058594 138.816406 161.371094 130.5625 172.023438 L 130.542969 168.394531 C 137.980469 160.609375 150.640625 156.625 167.140625 163.207031 "/>
<path style=" stroke:none;fill-rule:evenodd;fill:rgb(100%,100%,100%);fill-opacity:1;" d="M 161.609375 158.332031 L 164.738281 156.472656 C 152.996094 153.460938 138.535156 155.699219 130.460938 166.570313 C 139.40625 157.65625 151.242188 156.835938 161.609375 158.332031 "/>
<path style=" stroke:none;fill-rule:evenodd;fill:rgb(100%,100%,100%);fill-opacity:1;" d="M 162.75 150.996094 C 153.550781 150.292969 143.058594 151.085938 133.542969 161.265625 C 139.0625 156.90625 145.191406 152.484375 159.011719 153.167969 Z M 162.75 150.996094 "/>
</g>
</svg>
